<?xml version="1.0" encoding="UTF-8"?><svg xmlns="http://www.w3.org/2000/svg" xmlns:xlink="http://www.w3.org/1999/xlink" contentScriptType="text/ecmascript" width="480pt" zoomAndPan="magnify" contentStyleType="text/css" viewBox="0 0 480 319.499995" height="319.499995pt" preserveAspectRatio="xMidYMid meet" version="1.2"><defs><clipPath xml:id="clip1" id="clip1"><path d="M 152.90625 75.457031 L 327.382812 75.457031 L 327.382812 242.855469 L 152.90625 242.855469 Z M 152.90625 75.457031 "/></clipPath><clipPath xml:id="clip2" id="clip2"><path d="M 152.90625 75.457031 L 327.382812 75.457031 L 327.382812 100 L 152.90625 100 Z M 152.90625 75.457031 "/></clipPath></defs><g xml:id="surface1" id="surface1"><g clip-rule="nonzero" clip-path="url(#clip1)"><path style=" stroke:none;fill-rule:nonzero;fill:rgb(92.549133%,94.509888%,95.689392%);fill-opacity:1;" d="M 158.984375 242.847656 L 321.601562 242.847656 C 324.929688 242.847656 327.625 240.171875 327.625 236.871094 L 327.625 81.425781 C 327.625 78.125 324.929688 75.449219 321.601562 75.449219 L 158.984375 75.449219 C 155.65625 75.449219 152.960938 78.125 152.960938 81.425781 L 152.960938 236.871094 C 152.960938 240.171875 155.65625 242.847656 158.984375 242.847656 "/></g><g clip-rule="nonzero" clip-path="url(#clip2)"><path style=" stroke:none;fill-rule:nonzero;fill:rgb(76.469421%,77.249146%,76.858521%);fill-opacity:1;" d="M 327.625 81.425781 L 327.625 99.363281 L 152.960938 99.363281 L 152.960938 81.425781 C 152.960938 78.125 155.65625 75.449219 158.984375 75.449219 L 321.601562 75.449219 C 324.929688 75.449219 327.625 78.125 327.625 81.425781 "/></g><path style=" stroke:none;fill-rule:nonzero;fill:rgb(92.549133%,94.509888%,95.689392%);fill-opacity:1;" d="M 192.109375 87.40625 C 192.109375 89.058594 190.761719 90.394531 189.097656 90.394531 C 187.433594 90.394531 186.085938 89.058594 186.085938 87.40625 C 186.085938 85.753906 187.433594 84.417969 189.097656 84.417969 C 190.761719 84.417969 192.109375 85.753906 192.109375 87.40625 "/><path style=" stroke:none;fill-rule:nonzero;fill:rgb(92.549133%,94.509888%,95.689392%);fill-opacity:1;" d="M 180.0625 87.40625 C 180.0625 89.058594 178.714844 90.394531 177.050781 90.394531 C 175.390625 90.394531 174.039062 89.058594 174.039062 87.40625 C 174.039062 85.753906 175.390625 84.417969 177.050781 84.417969 C 178.714844 84.417969 180.0625 85.753906 180.0625 87.40625 "/><path style=" stroke:none;fill-rule:nonzero;fill:rgb(92.549133%,94.509888%,95.689392%);fill-opacity:1;" d="M 168.019531 87.40625 C 168.019531 89.058594 166.667969 90.394531 165.007812 90.394531 C 163.34375 90.394531 161.996094 89.058594 161.996094 87.40625 C 161.996094 85.753906 163.34375 84.417969 165.007812 84.417969 C 166.667969 84.417969 168.019531 85.753906 168.019531 87.40625 "/><path style=" stroke:none;fill-rule:nonzero;fill:rgb(27.059937%,50.979614%,79.998779%);fill-opacity:1;" d="M 309.554688 165.320312 L 171.027344 165.320312 L 171.027344 117.492188 L 309.554688 117.492188 L 309.554688 165.320312 "/><path style=" stroke:none;fill-rule:nonzero;fill:rgb(76.469421%,77.249146%,76.858521%);fill-opacity:1;" d="M 195.121094 180.265625 L 183.074219 180.265625 C 181.410156 180.265625 180.0625 178.929688 180.0625 177.277344 C 180.0625 175.628906 181.410156 174.289062 183.074219 174.289062 L 195.121094 174.289062 C 196.785156 174.289062 198.132812 175.628906 198.132812 177.277344 C 198.132812 178.929688 196.785156 180.265625 195.121094 180.265625 "/><path style=" stroke:none;fill-rule:nonzero;fill:rgb(76.469421%,77.249146%,76.858521%);fill-opacity:1;" d="M 255.351562 180.265625 L 207.167969 180.265625 C 205.503906 180.265625 204.15625 178.929688 204.15625 177.277344 C 204.15625 175.628906 205.503906 174.289062 207.167969 174.289062 L 255.351562 174.289062 C 257.011719 174.289062 258.363281 175.628906 258.363281 177.277344 C 258.363281 178.929688 257.011719 180.265625 255.351562 180.265625 "/><path style=" stroke:none;fill-rule:nonzero;fill:rgb(76.469421%,77.249146%,76.858521%);fill-opacity:1;" d="M 237.28125 192.222656 L 171.027344 192.222656 C 169.367188 192.222656 168.019531 190.886719 168.019531 189.234375 C 168.019531 187.585938 169.367188 186.246094 171.027344 186.246094 L 237.28125 186.246094 C 238.945312 186.246094 240.292969 187.585938 240.292969 189.234375 C 240.292969 190.886719 238.945312 192.222656 237.28125 192.222656 "/><path style=" stroke:none;fill-rule:nonzero;fill:rgb(76.469421%,77.249146%,76.858521%);fill-opacity:1;" d="M 189.097656 204.179688 L 171.027344 204.179688 C 169.367188 204.179688 168.019531 202.84375 168.019531 201.191406 C 168.019531 199.542969 169.367188 198.203125 171.027344 198.203125 L 189.097656 198.203125 C 190.761719 198.203125 192.109375 199.542969 192.109375 201.191406 C 192.109375 202.84375 190.761719 204.179688 189.097656 204.179688 "/><path style=" stroke:none;fill-rule:nonzero;fill:rgb(76.469421%,77.249146%,76.858521%);fill-opacity:1;" d="M 219.210938 216.136719 L 171.027344 216.136719 C 169.367188 216.136719 168.019531 214.800781 168.019531 213.148438 C 168.019531 211.5 169.367188 210.160156 171.027344 210.160156 L 219.210938 210.160156 C 220.875 210.160156 222.222656 211.5 222.222656 213.148438 C 222.222656 214.800781 220.875 216.136719 219.210938 216.136719 "/><path style=" stroke:none;fill-rule:nonzero;fill:rgb(76.469421%,77.249146%,76.858521%);fill-opacity:1;" d="M 309.554688 228.097656 L 171.027344 228.097656 C 169.367188 228.097656 168.019531 226.757812 168.019531 225.105469 C 168.019531 223.457031 169.367188 222.117188 171.027344 222.117188 L 309.554688 222.117188 C 311.21875 222.117188 312.566406 223.457031 312.566406 225.105469 C 312.566406 226.757812 311.21875 228.097656 309.554688 228.097656 "/><path style=" stroke:none;fill-rule:nonzero;fill:rgb(76.469421%,77.249146%,76.858521%);fill-opacity:1;" d="M 309.554688 180.265625 L 267.394531 180.265625 C 265.734375 180.265625 264.382812 178.929688 264.382812 177.277344 C 264.382812 175.628906 265.734375 174.289062 267.394531 174.289062 L 309.554688 174.289062 C 311.21875 174.289062 312.566406 175.628906 312.566406 177.277344 C 312.566406 178.929688 311.21875 180.265625 309.554688 180.265625 "/><path style=" stroke:none;fill-rule:nonzero;fill:rgb(76.469421%,77.249146%,76.858521%);fill-opacity:1;" d="M 309.554688 192.222656 L 249.328125 192.222656 C 247.664062 192.222656 246.316406 190.886719 246.316406 189.234375 C 246.316406 187.585938 247.664062 186.246094 249.328125 186.246094 L 309.554688 186.246094 C 311.21875 186.246094 312.566406 187.585938 312.566406 189.234375 C 312.566406 190.886719 311.21875 192.222656 309.554688 192.222656 "/><path style=" stroke:none;fill-rule:nonzero;fill:rgb(76.469421%,77.249146%,76.858521%);fill-opacity:1;" d="M 285.464844 204.179688 L 201.144531 204.179688 C 199.480469 204.179688 198.132812 202.84375 198.132812 201.191406 C 198.132812 199.542969 199.480469 198.203125 201.144531 198.203125 L 285.464844 198.203125 C 287.128906 198.203125 288.476562 199.542969 288.476562 201.191406 C 288.476562 202.84375 287.128906 204.179688 285.464844 204.179688 "/><path style=" stroke:none;fill-rule:nonzero;fill:rgb(76.469421%,77.249146%,76.858521%);fill-opacity:1;" d="M 309.554688 204.179688 L 297.511719 204.179688 C 295.847656 204.179688 294.5 202.84375 294.5 201.191406 C 294.5 199.542969 295.847656 198.203125 297.511719 198.203125 L 309.554688 198.203125 C 311.21875 198.203125 312.566406 199.542969 312.566406 201.191406 C 312.566406 202.84375 311.21875 204.179688 309.554688 204.179688 "/><path style=" stroke:none;fill-rule:nonzero;fill:rgb(76.469421%,77.249146%,76.858521%);fill-opacity:1;" d="M 309.554688 216.136719 L 231.257812 216.136719 C 229.59375 216.136719 228.246094 214.800781 228.246094 213.148438 C 228.246094 211.5 229.59375 210.160156 231.257812 210.160156 L 309.554688 210.160156 C 311.21875 210.160156 312.566406 211.5 312.566406 213.148438 C 312.566406 214.800781 311.21875 216.136719 309.554688 216.136719 "/><path style=" stroke:none;fill-rule:nonzero;fill:rgb(95.689392%,79.219055%,12.939453%);fill-opacity:1;" d="M 261.371094 135.429688 C 261.371094 137.078125 260.023438 138.417969 258.363281 138.417969 C 256.699219 138.417969 255.351562 137.078125 255.351562 135.429688 C 255.351562 133.777344 256.699219 132.4375 258.363281 132.4375 C 260.023438 132.4375 261.371094 133.777344 261.371094 135.429688 "/><path style=" stroke:none;fill-rule:nonzero;fill:rgb(42.749023%,68.629456%,44.309998%);fill-opacity:1;" d="M 237.28125 165.320312 L 195.121094 165.320312 L 216.199219 135.429688 Z M 237.28125 165.320312 "/><path style=" stroke:none;fill-rule:nonzero;fill:rgb(42.749023%,68.629456%,44.309998%);fill-opacity:1;" d="M 285.464844 165.320312 L 249.328125 165.320312 L 267.394531 147.386719 Z M 285.464844 165.320312 "/><path style=" stroke:none;fill-rule:nonzero;fill:rgb(51.368713%,81.17981%,50.979614%);fill-opacity:1;" d="M 261.371094 165.320312 L 225.234375 165.320312 L 243.304688 141.40625 Z M 261.371094 165.320312 "/></g></svg>